<svg xmlns="http://www.w3.org/2000/svg" viewBox="0 0 640 400" role="img" aria-label="Recipe App placeholder screens">
  <defs>
    <linearGradient id="bg" x1="0" y1="0" x2="1" y2="1">
      <stop offset="0" stop-color="#17323C"/>
      <stop offset="1" stop-color="#123B33"/>
    </linearGradient>
    <linearGradient id="brand" x1="0" y1="0" x2="1" y2="1">
      <stop offset="0" stop-color="#22C883"/>
      <stop offset="1" stop-color="#10A6A0"/>
    </linearGradient>
  </defs>

  <rect width="640" height="400" fill="url(#bg)"/>
  <g fill="#ffffff" opacity="0.03">
    <circle cx="560" cy="60" r="120"/>
    <circle cx="70" cy="360" r="90"/>
  </g>

  <!-- phone 1 -->
  <g transform="translate(210,44) rotate(-6)">
    <rect x="0" y="0" width="150" height="308" rx="26" fill="#0D131B" stroke="#2A3542" stroke-width="2"/>
    <rect x="10" y="14" width="130" height="120" rx="10" fill="url(#brand)" opacity="0.5"/>
    <rect x="10" y="146" width="90" height="10" rx="5" fill="#3A4553"/>
    <rect x="10" y="164" width="120" height="8" rx="4" fill="#242E3A"/>
    <rect x="10" y="180" width="100" height="8" rx="4" fill="#242E3A"/>
    <rect x="10" y="206" width="60" height="26" rx="13" fill="url(#brand)"/>
    <rect x="10" y="248" width="130" height="46" rx="10" fill="#151D28"/>
    <circle cx="30" cy="271" r="10" fill="#2A3542"/>
    <rect x="48" y="263" width="70" height="7" rx="3.5" fill="#2A3542"/>
    <rect x="48" y="276" width="50" height="6" rx="3" fill="#1C2530"/>
  </g>

  <!-- phone 2 -->
  <g transform="translate(340,80) rotate(5)">
    <rect x="0" y="0" width="150" height="308" rx="26" fill="#0D131B" stroke="#2A3542" stroke-width="2"/>
    <rect x="10" y="14" width="130" height="90" rx="10" fill="#151D28"/>
    <path d="M20 90c14-30 40-46 55-46s41 16 55 46" fill="none" stroke="url(#brand)" stroke-width="3" stroke-linecap="round"/>
    <rect x="10" y="118" width="80" height="9" rx="4.5" fill="#3A4553"/>
    <rect x="10" y="138" width="130" height="7" rx="3.5" fill="#242E3A"/>
    <rect x="10" y="152" width="110" height="7" rx="3.5" fill="#242E3A"/>
    <rect x="10" y="176" width="130" height="52" rx="10" fill="#151D28"/>
    <rect x="20" y="190" width="24" height="24" rx="6" fill="url(#brand)" opacity="0.7"/>
    <rect x="54" y="192" width="70" height="7" rx="3.5" fill="#2A3542"/>
    <rect x="54" y="205" width="50" height="6" rx="3" fill="#1C2530"/>
  </g>

  <text x="28" y="374" font-family="'JetBrains Mono', monospace" font-size="13" fill="#8FA6A0">// recipe app — preview</text>
</svg>
