<svg xmlns="http://www.w3.org/2000/svg" viewBox="0 0 640 360" role="img" aria-label="Ebook and Audiobook App placeholder screens">
  <defs>
    <linearGradient id="bg" x1="0" y1="0" x2="1" y2="1">
      <stop offset="0" stop-color="#1A2E3E"/>
      <stop offset="1" stop-color="#0F3A42"/>
    </linearGradient>
    <linearGradient id="brand" x1="0" y1="0" x2="1" y2="1">
      <stop offset="0" stop-color="#22C883"/>
      <stop offset="1" stop-color="#10A6A0"/>
    </linearGradient>
  </defs>
  <rect width="640" height="360" fill="url(#bg)"/>
  <g fill="#ffffff" opacity="0.03"><circle cx="60" cy="50" r="100"/><circle cx="600" cy="320" r="110"/></g>

  <g transform="translate(215,26) rotate(-5)">
    <rect x="0" y="0" width="150" height="300" rx="26" fill="#0D131B" stroke="#2A3542" stroke-width="2"/>
    <rect x="10" y="14" width="130" height="150" rx="10" fill="#151D28"/>
    <rect x="24" y="28" width="102" height="122" rx="6" fill="url(#brand)" opacity="0.35"/>
    <path d="M50 90h60M50 104h60M50 118h40" stroke="url(#brand)" stroke-width="3" stroke-linecap="round"/>
    <rect x="10" y="174" width="90" height="9" rx="4.5" fill="#3A4553"/>
    <rect x="10" y="192" width="120" height="7" rx="3.5" fill="#242E3A"/>
    <rect x="10" y="208" width="100" height="7" rx="3.5" fill="#242E3A"/>
    <circle cx="75" cy="252" r="26" fill="none" stroke="url(#brand)" stroke-width="3"/>
    <path d="M67 252l6 6 12-12" fill="none" stroke="url(#brand)" stroke-width="3" stroke-linecap="round" stroke-linejoin="round"/>
  </g>

  <g transform="translate(345,64) rotate(6)">
    <rect x="0" y="0" width="150" height="300" rx="26" fill="#0D131B" stroke="#2A3542" stroke-width="2"/>
    <circle cx="75" cy="90" r="46" fill="url(#brand)" opacity="0.18"/>
    <path d="M55 90a20 20 0 1 1 40 0 20 20 0 0 1-40 0z" fill="none" stroke="url(#brand)" stroke-width="3"/>
    <path d="M75 78v24M67 90h16" stroke="url(#brand)" stroke-width="3" stroke-linecap="round"/>
    <rect x="30" y="150" width="90" height="7" rx="3.5" fill="#3A4553"/>
    <rect x="30" y="168" width="60" height="6" rx="3" fill="#242E3A"/>
    <rect x="20" y="196" width="110" height="30" rx="15" fill="#151D28"/>
    <rect x="30" y="208" width="60" height="6" rx="3" fill="url(#brand)"/>
    <circle cx="112" cy="211" r="7" fill="url(#brand)"/>
  </g>

  <text x="28" y="336" font-family="'JetBrains Mono', monospace" font-size="13" fill="#8FA6A0">// chapters — preview</text>
</svg>
